# xmcd
#
# Track frame offsets:
#	150
#	25190
#	47930
#	71145
#	89812
#	112937
#	130760
#	157652
#	177502
#	196347
#	219142
#
# Disc length: 3346 seconds
#
# Revision: 1
# Processed by: cddbd v1.5.1PL0 Copyright (c) Steve Scherf et al.
# Submitted via: CDex 1.50Beta5
#
DISCID=940d100b
DTITLE=織田裕二 - 決心
DYEAR=1993
DGENRE=Pop
TTITLE0=HAPPINESS
TTITLE1=卑怯者のように
TTITLE2=決心
TTITLE3=NO RETURN
TTITLE4=夕焼け
TTITLE5=030
TTITLE6=夢の谷間
TTITLE7=運が良けりゃ
TTITLE8=NORU SORU
TTITLE9=アコースティック
TTITLE10=風のない午後
EXTD=
EXTT0=
EXTT1=
EXTT2=
EXTT3=
EXTT4=
EXTT5=
EXTT6=
EXTT7=
EXTT8=
EXTT9=
EXTT10=
PLAYORDER=
